# xmcd
#
# Track frame offsets:
#	150
#	16933
#	38770
#	53615
#	70397
#	87335
#	102452
#	117595
#	137055
#	154625
#	171550
#	187360
#	204842
#	225200
#	242827
#
# Disc length: 3479 seconds
#
# Revision: 17
# Processed by: cddbd v1.5.2PL0 Copyright (c) Steve Scherf et al.
# Submitted via: EasyCDDAExtractor 15.3.0.1
#
DISCID=cc0d950f
DTITLE=Britney Spears - In The Zone
DYEAR=2003
DGENRE=Pop
TTITLE0=Me Against The Music (Featuring Madonna)
TTITLE1=(I Got That) Boom Boom (Featuring Ying Yang Twins)
TTITLE2=Showdown
TTITLE3=Breathe On Me
TTITLE4=Early Mornin'
TTITLE5=Toxic
TTITLE6=Outrageous
TTITLE7=Touch Of My Hand
TTITLE8=The Hook Up
TTITLE9=Shadow
TTITLE10=Brave New Girl
TTITLE11=Everytime
TTITLE12=Me Against The Music (Featuring Madonna) (Rishi Rich's Desi Kulcha Re
TTITLE12=mix) (Bonus Remix)
TTITLE13=The Answer (Bonus Track)
TTITLE14=Don't Hang Up (Bonus Track)
EXTD=
EXTT0=
EXTT1=
EXTT2=
EXTT3=
EXTT4=
EXTT5=
EXTT6=
EXTT7=
EXTT8=
EXTT9=
EXTT10=
EXTT11=
EXTT12=
EXTT13=
EXTT14=
PLAYORDER=
